<?xml version="1.0" encoding="UTF-8"?>
<svg version="1.1" viewBox="0 0 1500 1500" width="456" height="456" xmlns="http://www.w3.org/2000/svg">
<path transform="translate(0)" d="m0 0h1824v1824h-1824z" fill="#FEF14F"/>
<path transform="translate(0)" d="m0 0h1824v1824h-1824zm343 132-24 4-23 6-21 8-23 11-19 12-16 13-10 9-8 7-7 7-9 11-12 16-9 15-11 21-8 21-6 19-4 19-2 21v1109l2 27 3 19 6 22 9 22 8 15 5 10 7 10 7 11 12 14 7 9 7 6 5 6 11 9 13 10 20 12 19 10 24 9 21 6 23 4 14 1 1071 1 50-1 18-2 22-5 16-5 25-10 19-10 19-12 16-13 7-7 3-2v-2l4-2 9-11 8-9 12-17 11-18 11-22 7-19 5-18 4-22 1-11 1-28v-1040l-1-57-3-23-4-19-6-20-6-15-11-23-9-14-10-14-12-14-17-17-11-9-16-12-21-12-23-11-30-10-25-5-9-1z" fill="#FEFDFB"/>
<path transform="translate(669,605)" d="m0 0h321l21 3 22 5 26 9 19 9 17 11 14 11 10 9 7 7 9 11 6 8 11 18 8 15 8 20 7 25 4 23 2 19v37l-4 29-5 20-7 20-9 19-8 12-9 12-7 7-6 7-13 10-1 2 4 2 14 11 17 17 12 16 12 22 8 19 6 20 4 23 1 24-1 19-4 26-7 25-10 24-12 23-12 17-8 10-27 27-17 13-13 8-15 8-25 11-21 6-17 3-31 3h-300l-1-1-1-31v-618z" fill="#FEFCF9"/>
<path transform="translate(630,564)" d="m0 0h341l28 1 27 4 26 7 20 7 16 7 19 11 17 12 11 9 13 12 13 14 13 17 11 17 9 16 11 26 8 27 5 25 3 28v38l-3 27-5 25-7 23-6 16-9 17-6 11-10 14-3 4 1 4 10 12 10 14 11 19 9 19 9 27 4 18 3 19 1 16v15l-2 23-4 26-7 26-9 24-8 17-8 14-8 12-13 17-12 14-18 18-11 9-15 12-14 9-18 10-21 9-22 8-22 5-21 3-16 1h-347l-5-2v-832zm39 41-1 105v618l1 31 1 1h300l38-4 22-5 16-6 24-11 18-10 17-13 12-11 7-6 7-8 8-8 13-18 10-17 11-23 7-20 5-18 4-26 1-27-2-23-4-20-8-24-10-21-10-16-11-14-17-17-14-11h-2l5-5 11-9 12-13 13-18 10-19 9-25 5-20 4-29v-37l-3-27-5-23-7-22-9-21-10-18-8-12-11-13-9-10-7-7-17-13-19-12-22-10-21-7-22-5-21-3z" fill="#0D0A05"/>
<path transform="translate(804,314)" d="m0 0 4 4 12 17 14 20 13 18 12 17 13 18 12 17 13 18 12 17 13 18 14 20 13 18 12 17 13 18 3 4v2h-347l2-5 13-17 13-19 12-16 12-17 40-56 13-18 14-20 13-18 10-14 14-20 14-19z" fill="#0D0A05"/>
<path transform="translate(831,1057)" d="m0 0h48l87 1 18 5 14 7 10 8 8 9 8 14 5 15 1 6v24l-3 12-8 16-6 8-10 10-11 7-12 6-12 3h-147v-150z" fill="#0D0A05"/>
<path transform="translate(821,755)" d="m0 0h143l19 5 11 6 10 9 8 10 8 17 4 20v19l-3 15-5 13-6 10-9 10-10 8-10 5-13 4-7 1-56 1h-64l-20-1z" fill="#0D0A05"/>
<path transform="translate(862,1097)" d="m0 0h87l14 1 10 4 9 7 5 7 3 7 1 5-1 13-6 12-6 7-11 7-9 2h-97v-71z" fill="#FEF14F"/>
<path transform="translate(862,795)" d="m0 0h97l8 2 6 4 7 8 4 10v21l-4 11-6 9-9 6-6 1h-98v-71z" fill="#FEF14F"/>
</svg>
